<?xml version="1.0" standalone="no"?>
<!DOCTYPE svg PUBLIC "-//W3C//DTD SVG 20010904//EN"
 "http://www.w3.org/TR/2001/REC-SVG-20010904/DTD/svg10.dtd">
<svg version="1.0" xmlns="http://www.w3.org/2000/svg"
 width="1024.000000pt" height="1024.000000pt" viewBox="0 0 1024.000000 1024.000000"
 preserveAspectRatio="xMidYMid meet">

<g transform="translate(0.000000,1024.000000) scale(0.100000,-0.100000)"
fill="#000000" stroke="none">
<path d="M4830 9269 c-1122 -75 -2177 -616 -2906 -1489 -915 -1097 -1202
-2591 -757 -3955 205 -629 538 -1171 1012 -1646 391 -390 815 -678 1311 -889
231 -99 344 -134 408 -126 96 11 153 54 180 135 8 23 12 159 12 439 l0 404
-32 -6 c-303 -56 -649 -52 -843 11 -148 47 -265 114 -354 204 -75 75 -108 127
-167 260 -131 292 -293 516 -442 610 -100 63 -147 104 -173 153 -21 41 -22 45
-7 68 25 38 89 51 215 46 91 -4 119 -9 179 -35 160 -68 300 -194 430 -388 165
-249 319 -369 544 -426 164 -42 448 -12 616 65 38 18 54 31 54 44 0 43 52 221
85 289 39 84 77 141 132 200 l40 43 -31 4 c-422 60 -647 119 -895 237 -189 90
-306 172 -452 318 -139 140 -219 250 -300 418 -91 188 -159 432 -191 693 -21
167 -17 572 6 695 52 277 176 544 345 744 l53 63 -26 87 c-42 141 -51 213 -50
406 1 203 17 303 80 502 l36 112 46 7 c73 11 254 -19 394 -66 155 -51 380
-162 567 -277 l144 -89 115 28 c141 34 295 62 467 85 164 22 702 25 870 5 160
-19 387 -59 513 -91 l109 -28 134 84 c153 96 406 225 524 267 177 63 373 98
458 82 34 -6 35 -9 65 -99 118 -358 123 -653 15 -998 -2 -9 15 -38 42 -70 164
-191 287 -446 347 -719 21 -96 23 -130 22 -385 0 -238 -4 -301 -22 -422 -90
-576 -312 -959 -712 -1228 -243 -163 -599 -287 -979 -340 -58 -9 -121 -18
-139 -21 l-33 -5 56 -62 c73 -80 147 -229 180 -360 40 -159 46 -299 38 -928
-7 -644 -7 -645 57 -709 87 -87 179 -79 466 39 841 346 1533 940 2001 1720
982 1635 721 3738 -633 5086 -853 850 -2016 1284 -3224 1204z"/>
</g>
</svg>
